<?xml version="1.0" standalone="no"?><svg xmlns="http://www.w3.org/2000/svg" viewBox="0 0 1440 320"><path fill="#3a2654" fill-opacity="1" d="M0,224L6.2,224C12.3,224,25,224,37,229.3C49.2,235,62,245,74,218.7C86.2,192,98,128,111,128C123.1,128,135,192,148,197.3C160,203,172,149,185,149.3C196.9,149,209,203,222,197.3C233.8,192,246,128,258,122.7C270.8,117,283,171,295,165.3C307.7,160,320,96,332,90.7C344.6,85,357,139,369,170.7C381.5,203,394,213,406,229.3C418.5,245,431,267,443,250.7C455.4,235,468,181,480,138.7C492.3,96,505,64,517,80C529.2,96,542,160,554,197.3C566.2,235,578,245,591,224C603.1,203,615,149,628,122.7C640,96,652,96,665,133.3C676.9,171,689,245,702,266.7C713.8,288,726,256,738,250.7C750.8,245,763,267,775,234.7C787.7,203,800,117,812,112C824.6,107,837,181,849,202.7C861.5,224,874,192,886,202.7C898.5,213,911,267,923,288C935.4,309,948,299,960,277.3C972.3,256,985,224,997,186.7C1009.2,149,1022,107,1034,90.7C1046.2,75,1058,85,1071,80C1083.1,75,1095,53,1108,69.3C1120,85,1132,139,1145,154.7C1156.9,171,1169,149,1182,122.7C1193.8,96,1206,64,1218,85.3C1230.8,107,1243,181,1255,208C1267.7,235,1280,213,1292,181.3C1304.6,149,1317,107,1329,106.7C1341.5,107,1354,149,1366,149.3C1378.5,149,1391,107,1403,96C1415.4,85,1428,107,1434,117.3L1440,128L1440,320L1433.8,320C1427.7,320,1415,320,1403,320C1390.8,320,1378,320,1366,320C1353.8,320,1342,320,1329,320C1316.9,320,1305,320,1292,320C1280,320,1268,320,1255,320C1243.1,320,1231,320,1218,320C1206.2,320,1194,320,1182,320C1169.2,320,1157,320,1145,320C1132.3,320,1120,320,1108,320C1095.4,320,1083,320,1071,320C1058.5,320,1046,320,1034,320C1021.5,320,1009,320,997,320C984.6,320,972,320,960,320C947.7,320,935,320,923,320C910.8,320,898,320,886,320C873.8,320,862,320,849,320C836.9,320,825,320,812,320C800,320,788,320,775,320C763.1,320,751,320,738,320C726.2,320,714,320,702,320C689.2,320,677,320,665,320C652.3,320,640,320,628,320C615.4,320,603,320,591,320C578.5,320,566,320,554,320C541.5,320,529,320,517,320C504.6,320,492,320,480,320C467.7,320,455,320,443,320C430.8,320,418,320,406,320C393.8,320,382,320,369,320C356.9,320,345,320,332,320C320,320,308,320,295,320C283.1,320,271,320,258,320C246.2,320,234,320,222,320C209.2,320,197,320,185,320C172.3,320,160,320,148,320C135.4,320,123,320,111,320C98.5,320,86,320,74,320C61.5,320,49,320,37,320C24.6,320,12,320,6,320L0,320Z"></path></svg>